# xmcd CD database file
#
# Track frame offsets:
#	187
#	18617
#	39610
#	53317
#	69542
#	91502
#	107682
#	128617
#	147527
#	166925
#
# Disc length: 2423 seconds
#
# Revision: 3
# Processed by: cddbd v1.5.1PL0 Copyright (c) Steve Scherf et al.
# Submitted via: CDex 1.51
#
DISCID=7a09750a
DTITLE=MALTA - SWEET MAGIC
DYEAR=1984
DGENRE=Fusion
TTITLE0=Sweet Magic
TTITLE1=Walking In The Sky
TTITLE2=Always You
TTITLE3=XYZ
TTITLE4=Autumn Place
TTITLE5=Because Of Love
TTITLE6=Sunset In My Heart
TTITLE7=Manhattan In Blue
TTITLE8=Midnight Train
TTITLE9=Stardust
EXTD=YEAR: 1984
EXTT0=
EXTT1=
EXTT2=
EXTT3=
EXTT4=
EXTT5=
EXTT6=
EXTT7=
EXTT8=
EXTT9=
PLAYORDER=
